<svg width="36" height="36" viewBox="0 0 36 36" fill="none" xmlns="http://www.w3.org/2000/svg">
<rect width="36" height="36" rx="14" fill="#202020"/>
<path d="M13.956 19.642C14.4534 18.7471 15.7401 18.7458 16.2393 19.6397L17.4869 21.8739C17.7757 22.3911 17.7759 23.0215 17.4888 23.5383L15.6816 26.7938C15.0119 28.0003 13.4889 28.4323 12.2854 27.7572C11.0894 27.0862 10.6609 25.5746 11.3268 24.3757L13.956 19.642Z" fill="url(#paint0_linear_235_52)"/>
<path d="M6.17146 16.8077C6.22821 15.4297 7.39414 14.3603 8.77188 14.4225L12.1711 14.5762C12.9629 14.6114 13.6788 15.0547 14.0658 15.7478C14.4519 16.4392 14.4538 17.2811 14.0684 17.9738C13.5128 18.9741 12.439 19.5738 11.2959 19.5221L8.54695 19.3977C7.17702 19.3358 6.11503 18.1778 6.17146 16.8077Z" fill="url(#paint1_linear_235_52)"/>
<path d="M22.042 19.6165C21.0192 19.6625 20.3432 18.5677 20.8424 17.6738L22.0902 15.4396C22.3791 14.9224 22.9157 14.5916 23.5062 14.565L27.2259 14.396C28.6044 14.3333 29.7711 15.4034 29.8275 16.7822C29.8835 18.1524 28.8213 19.3102 27.4514 19.3721L22.042 19.6165Z" fill="url(#paint2_linear_235_52)"/>
<path d="M23.7121 27.7319C22.5091 28.4064 20.9871 27.9746 20.3174 26.769L18.6652 23.7943C18.2799 23.1016 18.2818 22.2597 18.6689 21.5666C19.055 20.8752 19.7709 20.432 20.5628 20.3968C21.7058 20.3451 22.7796 20.9449 23.3352 21.9452L24.6712 24.3509C25.337 25.5497 24.9082 27.0612 23.7121 27.7319Z" fill="url(#paint3_linear_235_52)"/>
<path d="M18.0252 12.4605C18.5641 13.3311 17.9379 14.4551 16.914 14.4551H14.3551C13.7627 14.4551 13.2121 14.1479 12.901 13.6453L10.9397 10.4802C10.2128 9.30726 10.5782 7.7669 11.7544 7.04535C12.9234 6.32827 14.4521 6.6911 15.1741 7.85699L18.0252 12.4605Z" fill="url(#paint4_linear_235_52)"/>
<path d="M24.2958 7.04583C25.4712 7.76722 25.8364 9.30658 25.1103 10.4791L23.319 13.372C22.9021 14.0462 22.1661 14.4551 21.3722 14.4551C20.5803 14.4551 19.8443 14.0462 19.4274 13.372C18.825 12.3993 18.8249 11.1693 19.4274 10.1966L20.8762 7.85707C21.5982 6.69121 23.127 6.32853 24.2958 7.04583Z" fill="url(#paint5_linear_235_52)"/>
<defs>
<linearGradient id="paint0_linear_235_52" x1="9.84346" y1="26.0439" x2="17.4451" y2="21.799" gradientUnits="userSpaceOnUse">
<stop stop-color="#43CF6A"/>
<stop offset="1" stop-color="#9CEEB2"/>
</linearGradient>
<linearGradient id="paint1_linear_235_52" x1="5.9459" y1="19.0645" x2="13.5475" y2="14.8196" gradientUnits="userSpaceOnUse">
<stop stop-color="#5E53F5"/>
<stop offset="1" stop-color="#987FEF"/>
</linearGradient>
<linearGradient id="paint2_linear_235_52" x1="29.6497" y1="19.7599" x2="22.0484" y2="15.5145" gradientUnits="userSpaceOnUse">
<stop stop-color="#43CF6A"/>
<stop offset="1" stop-color="#9CEEB2"/>
</linearGradient>
<linearGradient id="paint3_linear_235_52" x1="25.7518" y1="26.7402" x2="18.1505" y2="22.4948" gradientUnits="userSpaceOnUse">
<stop stop-color="#5E53F5"/>
<stop offset="1" stop-color="#987FEF"/>
</linearGradient>
<linearGradient id="paint4_linear_235_52" x1="14.4408" y1="5.74858" x2="14.4408" y2="14.4551" gradientUnits="userSpaceOnUse">
<stop stop-color="#43CF6A"/>
<stop offset="1" stop-color="#9CEEB2"/>
</linearGradient>
<linearGradient id="paint5_linear_235_52" x1="22.4353" y1="5.74858" x2="22.4353" y2="14.4551" gradientUnits="userSpaceOnUse">
<stop stop-color="#5E53F5"/>
<stop offset="1" stop-color="#987FEF"/>
</linearGradient>
</defs>
</svg>
